<svg width="43" height="43" viewBox="0 0 43 43" fill="none" xmlns="http://www.w3.org/2000/svg">
<rect width="43" height="43" fill="black"/>
<path fill-rule="evenodd" clip-rule="evenodd" d="M17.0527 10.072C18.3324 10.0131 18.7404 10 22 10C25.2596 10 25.6676 10.0142 26.9462 10.072C28.2247 10.1298 29.0975 10.3338 29.8611 10.6295C30.6607 10.9316 31.3862 11.404 31.9862 12.0149C32.5971 12.6138 33.0684 13.3382 33.3695 14.1389C33.6662 14.9025 33.8691 15.7753 33.928 17.0516C33.9869 18.3335 34 18.7415 34 22C34 25.2596 33.9858 25.6676 33.928 26.9473C33.8702 28.2236 33.6662 29.0964 33.3695 29.86C33.0684 30.6608 32.5963 31.3864 31.9862 31.9862C31.3862 32.5971 30.6607 33.0684 29.8611 33.3695C29.0975 33.6662 28.2247 33.8691 26.9484 33.928C25.6676 33.9869 25.2596 34 22 34C18.7404 34 18.3324 33.9858 17.0527 33.928C15.7764 33.8702 14.9036 33.6662 14.14 33.3695C13.3392 33.0683 12.6136 32.5963 12.0138 31.9862C11.4033 31.3869 10.9309 30.6617 10.6295 29.8611C10.3338 29.0975 10.1309 28.2247 10.072 26.9484C10.0131 25.6665 10 25.2585 10 22C10 18.7404 10.0142 18.3324 10.072 17.0538C10.1298 15.7753 10.3338 14.9025 10.6295 14.1389C10.9313 13.3383 11.4041 12.6131 12.0149 12.0138C12.6139 11.4035 13.3387 10.931 14.1389 10.6295C14.9025 10.3338 15.7753 10.1309 17.0516 10.072H17.0527ZM26.8491 12.232C25.5836 12.1742 25.204 12.1622 22 12.1622C18.796 12.1622 18.4164 12.1742 17.1509 12.232C15.9804 12.2855 15.3455 12.4807 14.9222 12.6455C14.3625 12.8636 13.9622 13.1222 13.5422 13.5422C13.1441 13.9295 12.8377 14.401 12.6455 14.9222C12.4807 15.3455 12.2855 15.9804 12.232 17.1509C12.1742 18.4164 12.1622 18.796 12.1622 22C12.1622 25.204 12.1742 25.5836 12.232 26.8491C12.2855 28.0196 12.4807 28.6545 12.6455 29.0778C12.8375 29.5982 13.144 30.0705 13.5422 30.4578C13.9295 30.856 14.4018 31.1625 14.9222 31.3545C15.3455 31.5193 15.9804 31.7145 17.1509 31.768C18.4164 31.8258 18.7949 31.8378 22 31.8378C25.2051 31.8378 25.5836 31.8258 26.8491 31.768C28.0196 31.7145 28.6545 31.5193 29.0778 31.3545C29.6375 31.1364 30.0378 30.8778 30.4578 30.4578C30.856 30.0705 31.1625 29.5982 31.3545 29.0778C31.5193 28.6545 31.7145 28.0196 31.768 26.8491C31.8258 25.5836 31.8378 25.204 31.8378 22C31.8378 18.796 31.8258 18.4164 31.768 17.1509C31.7145 15.9804 31.5193 15.3455 31.3545 14.9222C31.1364 14.3626 30.8778 13.9622 30.4578 13.5422C30.0705 13.1441 29.5989 12.8377 29.0778 12.6455C28.6545 12.4807 28.0196 12.2855 26.8491 12.232ZM20.4673 25.6993C21.3233 26.0556 22.2764 26.1037 23.1639 25.8353C24.0514 25.567 24.8182 24.9988 25.3334 24.2279C25.8485 23.457 26.0801 22.5311 25.9884 21.6085C25.8968 20.6858 25.4876 19.8236 24.8309 19.1691C24.4123 18.7507 23.906 18.4303 23.3487 18.2311C22.7914 18.0318 22.1968 17.9586 21.6078 18.0167C21.0188 18.0748 20.45 18.2627 19.9423 18.567C19.4347 18.8714 19.0008 19.2844 18.672 19.7766C18.3431 20.2687 18.1275 20.8276 18.0406 21.413C17.9536 21.9985 17.9976 22.596 18.1693 23.1624C18.341 23.7288 18.6362 24.2501 19.0335 24.6888C19.4309 25.1275 19.9205 25.4726 20.4673 25.6993ZM17.6385 17.6385C18.2113 17.0658 18.8913 16.6115 19.6396 16.3015C20.3879 15.9915 21.19 15.832 22 15.832C22.81 15.832 23.6121 15.9915 24.3604 16.3015C25.1087 16.6115 25.7887 17.0658 26.3615 17.6385C26.9342 18.2113 27.3885 18.8913 27.6985 19.6396C28.0085 20.3879 28.168 21.19 28.168 22C28.168 22.81 28.0085 23.6121 27.6985 24.3604C27.3885 25.1087 26.9342 25.7887 26.3615 26.3615C25.2047 27.5182 23.6359 28.168 22 28.168C20.3641 28.168 18.7953 27.5182 17.6385 26.3615C16.4818 25.2047 15.832 23.6359 15.832 22C15.832 20.3641 16.4818 18.7953 17.6385 17.6385ZM29.536 16.7505C29.6779 16.6167 29.7916 16.4557 29.8701 16.2771C29.9487 16.0985 29.9907 15.9059 29.9935 15.7108C29.9964 15.5157 29.9601 15.3221 29.8867 15.1413C29.8134 14.9604 29.7045 14.7962 29.5665 14.6582C29.4285 14.5203 29.2643 14.4114 29.0835 14.338C28.9027 14.2647 28.709 14.2283 28.5139 14.2312C28.3188 14.234 28.1263 14.276 27.9477 14.3546C27.7691 14.4332 27.6081 14.5468 27.4742 14.6887C27.2138 14.9648 27.0712 15.3314 27.0768 15.7108C27.0823 16.0903 27.2355 16.4526 27.5038 16.7209C27.7721 16.9892 28.1345 17.1424 28.5139 17.148C28.8933 17.1535 29.26 17.0109 29.536 16.7505Z" fill="white"/>
</svg>
