<svg width="29" height="22" viewBox="0 0 29 22" fill="none" xmlns="http://www.w3.org/2000/svg">
<path d="M12.0833 19.1675C12.7507 19.1675 13.2917 18.7684 13.2917 18.276C13.2917 17.7837 12.7507 17.3845 12.0833 17.3845C11.416 17.3845 10.875 17.7837 10.875 18.276C10.875 18.7684 11.416 19.1675 12.0833 19.1675Z" stroke="black" stroke-width="2" stroke-linecap="round" stroke-linejoin="round"/>
<path d="M21.7498 19.1675C22.4172 19.1675 22.9582 18.7684 22.9582 18.276C22.9582 17.7837 22.4172 17.3845 21.7498 17.3845C21.0825 17.3845 20.5415 17.7837 20.5415 18.276C20.5415 18.7684 21.0825 19.1675 21.7498 19.1675Z" stroke="black" stroke-width="2" stroke-linecap="round" stroke-linejoin="round"/>
<path d="M3.021 2.22879H6.646L9.9085 13.2836C10.0215 13.6924 10.3252 14.059 10.7668 14.3196C11.2083 14.5803 11.7598 14.7184 12.3252 14.71H21.6293C22.1947 14.7184 22.7462 14.5803 23.1877 14.3196C23.6293 14.059 23.933 13.6924 24.046 13.2836L25.9793 5.79485H8.57933" stroke="black" stroke-width="2" stroke-linecap="round" stroke-linejoin="round"/>
</svg>
